<svg width="3372" height="1001" viewBox="0 0 3372 1001" fill="none" xmlns="http://www.w3.org/2000/svg">
<path d="M480.66 44.2938L876.913 935.913C883.105 949.846 877.775 963.702 862.17 972.991C846.336 982.417 824.196 983.611 806.572 971.022L580.86 809.796C573.546 804.571 569.207 797.96 567.587 791.44L525.117 620.539C514.82 579.104 475.277 561.714 441.507 562.149C407.749 562.585 368.671 581.012 359.84 622.867L324.173 791.905C322.768 798.566 318.547 805.382 311.192 810.802L93.9302 970.902C76.6171 983.66 54.4854 982.811 38.4228 973.579C22.5614 964.463 16.9917 950.625 22.868 936.668L398.373 44.8056C404.279 30.7779 419.991 21.6416 439.222 21.5001C458.446 21.3587 474.426 30.2677 480.66 44.2938Z" fill="#0172FF" stroke="#0172FF" stroke-width="41"/>
<path d="M1364.2 326.001C1375 326.001 1381.6 330.801 1384 340.401L1517.2 740.001H1462.6L1421.8 610.401H1251.4L1210.6 740.001H1156L1289.2 340.401C1291.6 330.801 1298.2 326.001 1309 326.001H1364.2ZM1318 400.401L1265.8 564.801H1407.4L1355.2 400.401C1353.6 394.801 1351.8 389.201 1349.8 383.601C1348.2 377.601 1346.6 372.001 1345 366.801H1328.2C1326.6 372.001 1325 377.601 1323.4 383.601C1321.8 389.201 1320 394.801 1318 400.401ZM1694.84 440.601C1707.64 440.601 1722.84 441.601 1740.44 443.601C1758.44 445.201 1774.64 448.801 1789.04 454.401L1782.44 487.401C1769.24 486.201 1755.24 485.401 1740.44 485.001C1726.04 484.201 1713.64 483.801 1703.24 483.801C1680.04 483.801 1661.64 487.001 1648.04 493.401C1634.44 499.801 1624.64 511.001 1618.64 527.001C1612.64 543.001 1609.64 565.201 1609.64 593.601C1609.64 622.001 1612.64 644.401 1618.64 660.801C1624.64 676.801 1634.44 688.001 1648.04 694.401C1661.64 700.801 1680.04 704.001 1703.24 704.001C1712.04 704.001 1724.84 703.601 1741.64 702.801C1758.44 702.001 1774.24 700.401 1789.04 698.001L1794.44 732.201C1779.64 737.401 1763.44 741.201 1745.84 743.601C1728.64 746.001 1711.44 747.201 1694.24 747.201C1660.64 747.201 1633.64 742.201 1613.24 732.201C1592.84 722.201 1578.04 706.001 1568.84 683.601C1560.04 661.201 1555.64 631.201 1555.64 593.601C1555.64 556.001 1560.24 526.001 1569.44 503.601C1578.64 481.201 1593.44 465.201 1613.84 455.601C1634.24 445.601 1661.24 440.601 1694.84 440.601ZM2029.8 447.801V488.001H1936.8V659.601C1936.8 673.601 1939.8 683.601 1945.8 689.601C1951.8 695.601 1962 698.601 1976.4 698.601H2020.8L2026.8 737.601C2017.2 740.401 2005.6 742.401 1992 743.601C1978.4 744.801 1968 745.401 1960.8 745.401C1936.4 745.401 1917.8 738.601 1905 725.001C1892.2 711.401 1885.8 691.801 1885.8 666.201V488.001H1833V450.801L1885.8 447.801V361.401H1936.8V447.801H2029.8ZM2131.71 323.601C2142.11 323.601 2147.31 328.801 2147.31 339.201V373.401C2147.31 383.801 2142.11 389.001 2131.71 389.001H2107.71C2097.31 389.001 2092.11 383.801 2092.11 373.401V339.201C2092.11 328.801 2097.31 323.601 2107.71 323.601H2131.71ZM2144.91 447.801V740.001H2094.51V447.801H2144.91ZM2500.74 447.801L2393.94 727.401C2390.74 735.801 2384.74 740.001 2375.94 740.001H2329.74C2320.94 740.001 2314.94 735.801 2311.74 727.401L2204.94 447.801H2259.54L2331.54 652.401C2334.74 660.801 2337.74 669.401 2340.54 678.201C2343.34 687.001 2346.14 695.401 2348.94 703.401H2356.74C2359.94 695.001 2362.94 686.601 2365.74 678.201C2368.94 669.401 2371.94 660.801 2374.74 652.401L2446.74 447.801H2500.74ZM2675.59 440.601C2719.59 440.601 2751.39 448.601 2770.99 464.601C2790.99 480.601 2800.99 504.401 2800.99 536.001C2801.39 562.001 2795.99 582.401 2784.79 597.201C2773.59 611.601 2755.79 618.801 2731.39 618.801H2595.79C2597.39 642.001 2601.59 659.801 2608.39 672.201C2615.59 684.201 2625.59 692.601 2638.39 697.401C2651.19 701.801 2667.59 704.001 2687.59 704.001C2703.19 704.001 2720.19 703.401 2738.59 702.201C2757.39 700.601 2774.19 698.801 2788.99 696.801L2794.39 731.001C2785.19 734.601 2773.79 737.601 2760.19 740.001C2746.99 742.401 2733.19 744.201 2718.79 745.401C2704.79 746.601 2692.19 747.201 2680.99 747.201C2647.39 747.201 2620.39 742.201 2599.99 732.201C2579.59 721.801 2564.59 705.401 2554.99 683.001C2545.79 660.201 2541.19 630.201 2541.19 593.001C2541.19 554.601 2545.79 524.401 2554.99 502.401C2564.59 480.001 2579.19 464.201 2598.79 455.001C2618.79 445.401 2644.39 440.601 2675.59 440.601ZM2677.99 483.801C2657.59 483.801 2641.39 486.601 2629.39 492.201C2617.79 497.801 2609.19 507.601 2603.59 521.601C2598.39 535.201 2595.39 554.401 2594.59 579.201H2718.19C2731.39 579.201 2739.99 574.801 2743.99 566.001C2747.99 556.801 2749.99 546.801 2749.99 536.001C2749.59 517.201 2743.99 503.801 2733.19 495.801C2722.39 487.801 2703.99 483.801 2677.99 483.801ZM2984.66 326.001V653.001C2984.66 683.401 2977.66 706.401 2963.66 722.001C2950.06 737.601 2930.26 745.401 2904.26 745.401C2896.66 745.401 2887.26 744.601 2876.06 743.001C2864.86 741.801 2855.86 740.001 2849.06 737.601L2855.06 700.401H2885.06C2916.26 700.401 2931.86 685.201 2931.86 654.801V326.001H2984.66ZM3202.36 318.801C3221.96 319.201 3242.16 320.201 3262.96 321.801C3283.76 323.401 3304.56 326.401 3325.36 330.801L3321.76 369.201C3304.56 368.401 3285.56 367.801 3264.76 367.401C3243.96 366.601 3223.96 366.201 3204.76 366.201C3184.76 366.201 3168.56 367.201 3156.16 369.201C3144.16 371.201 3135.36 376.601 3129.76 385.401C3124.16 394.201 3121.36 408.801 3121.36 429.201C3121.36 452.001 3125.36 468.001 3133.36 477.201C3141.76 486.001 3155.16 492.601 3173.56 497.001L3257.56 518.001C3289.56 525.601 3311.36 539.001 3322.96 558.201C3334.96 577.001 3340.96 602.401 3340.96 634.401C3340.96 666.001 3336.16 690.001 3326.56 706.401C3316.96 722.401 3301.96 733.201 3281.56 738.801C3261.16 744.401 3234.76 747.201 3202.36 747.201C3188.76 747.201 3170.96 746.601 3148.96 745.401C3127.36 744.201 3102.36 741.001 3073.96 735.801L3077.56 696.801C3101.16 697.601 3120.16 698.401 3134.56 699.201C3148.96 699.601 3161.36 699.801 3171.76 699.801C3182.16 699.801 3192.96 699.801 3204.16 699.801C3225.36 699.801 3241.96 698.201 3253.96 695.001C3266.36 691.801 3274.96 685.401 3279.76 675.801C3284.96 666.201 3287.56 652.001 3287.56 633.201C3287.56 617.201 3285.76 604.801 3282.16 596.001C3278.56 587.201 3272.76 580.601 3264.76 576.201C3257.16 571.401 3247.36 567.601 3235.36 564.801L3149.56 543.201C3119.56 535.601 3098.36 522.401 3085.96 503.601C3073.96 484.801 3067.96 459.601 3067.96 428.001C3067.96 395.601 3072.76 371.801 3082.36 356.601C3091.96 341.001 3106.56 330.801 3126.16 326.001C3146.16 321.201 3171.56 318.801 3202.36 318.801Z" fill="#0172FF"/>
<path d="M2167.5 288.577C2175.21 284.621 2183.51 292.776 2179.69 300.553L2157.02 346.69C2155.77 349.242 2155.79 352.237 2157.09 354.767L2180.56 400.501C2184.52 408.211 2176.36 416.509 2168.59 412.688L2122.45 390.02C2119.9 388.766 2116.9 388.793 2114.37 390.091L2068.64 413.56C2060.93 417.516 2052.63 409.362 2056.45 401.584L2079.12 355.448C2080.37 352.895 2080.35 349.9 2079.05 347.37L2055.58 301.636C2051.62 293.927 2059.78 285.628 2067.55 289.45L2113.69 312.117C2116.24 313.371 2119.24 313.345 2121.77 312.047L2167.5 288.577Z" fill="#0172FF"/>
</svg>
