<svg width="900" height="1000" viewBox="0 0 900 1000" fill="none" xmlns="http://www.w3.org/2000/svg">
<path d="M480.651 43.2953L876.904 934.915C883.095 948.847 877.765 962.704 862.161 971.992C846.326 981.418 824.187 982.612 806.563 970.023L580.851 808.797C573.537 803.573 569.198 796.961 567.578 790.442L525.108 619.541C514.811 578.105 475.268 560.716 441.498 561.151C407.739 561.586 368.662 580.013 359.831 621.868L324.164 790.907C322.759 797.568 318.538 804.383 311.183 809.803L93.9209 969.903C76.6078 982.661 54.4762 981.812 38.4135 972.58C22.5521 963.464 16.9824 949.626 22.8588 935.669L398.363 43.807C404.27 29.7793 419.982 20.6431 439.212 20.5016C458.437 20.3601 474.417 29.2691 480.651 43.2953Z" fill="#0172FF" stroke="#0172FF" stroke-width="41"/>
</svg>
